<?xml version="1.0" encoding="UTF-8" standalone="no"?>
<!-- Created with Inkscape (http://www.inkscape.org/) -->

<svg
   xmlns:dc="http://purl.org/dc/elements/1.1/"
   xmlns:cc="http://creativecommons.org/ns#"
   xmlns:rdf="http://www.w3.org/1999/02/22-rdf-syntax-ns#"
   xmlns:svg="http://www.w3.org/2000/svg"
   xmlns="http://www.w3.org/2000/svg"
   xmlns:sodipodi="http://sodipodi.sourceforge.net/DTD/sodipodi-0.dtd"
   xmlns:inkscape="http://www.inkscape.org/namespaces/inkscape"
   width="298"
   height="60"
   viewBox="0 0 78.845835 15.875"
   version="1.1"
   id="svg3705"
   inkscape:version="0.92.2 (5c3e80d, 2017-08-06)"
   sodipodi:docname="common-evolution.svg">
  <defs
     id="defs3699" />
  <sodipodi:namedview
     id="base"
     pagecolor="#ffffff"
     bordercolor="#666666"
     borderopacity="1.0"
     inkscape:pageopacity="0.0"
     inkscape:pageshadow="2"
     inkscape:zoom="2"
     inkscape:cx="35"
     inkscape:cy="145"
     inkscape:document-units="mm"
     inkscape:current-layer="layer1"
     showgrid="false"
     units="px"
     inkscape:window-width="1920"
     inkscape:window-height="1017"
     inkscape:window-x="-8"
     inkscape:window-y="-8"
     inkscape:window-maximized="1" />
  <metadata
     id="metadata3702">
    <rdf:RDF>
      <cc:Work
         rdf:about="">
        <dc:format>image/svg+xml</dc:format>
        <dc:type
           rdf:resource="http://purl.org/dc/dcmitype/StillImage" />
        <dc:title></dc:title>
      </cc:Work>
    </rdf:RDF>
  </metadata>
  <g
     inkscape:label="Layer 1"
     inkscape:groupmode="layer"
     id="layer1"
     transform="translate(0,-281.12498)">
    <g
       id="g3748"
       transform="matrix(0.90950525,0,0,0.99218759,0.66145833,281.12499)">
      <path
         id="path3725"
         d="m 4.4181818,2 h -2 c -0.55,0 -1,0.45 -1,1 v 2 c 0,0.55 0.45,1 1,1 h 2 c 0.55,0 1,-0.45 1,-1 V 3 c 0,-0.55 -0.45,-1 -1,-1 z"
         inkscape:connector-curvature="0"
         style="fill:currentColor;stroke-width:1" />
      <path
         id="path3727"
         d="m 10.418182,6 h 2 c 0.55,0 1,-0.45 1,-1 V 3 c 0,-0.55 -0.45,-1 -1,-1 h -2 C 9.8681818,2 9.4181818,2.45 9.4181818,3 v 2 c 0,0.55 0.45,1 1.0000002,1 z m 0,-3 h 2 v 2 h -2 z"
         inkscape:connector-curvature="0"
         style="fill:currentColor;stroke-width:0.02785242;stroke-miterlimit:4;stroke-dasharray:none" />
      <path
         id="path3729"
         d="m 4.4181818,10 h -2 c -0.55,0 -1,0.45 -1,1 v 2 c 0,0.55 0.45,1 1,1 h 2 c 0.55,0 1,-0.45 1,-1 v -2 c 0,-0.55 -0.45,-1 -1,-1 z m 0,3 h -2 v -2 h 2 z"
         inkscape:connector-curvature="0"
         style="fill:currentColor;stroke-width:1" />
      <path
         id="path3731"
         d="m 12.418182,10 h -2 c -0.5500002,0 -1.0000002,0.45 -1.0000002,1 v 2 c 0,0.55 0.45,1 1.0000002,1 h 2 c 0.55,0 1,-0.45 1,-1 v -2 c 0,-0.55 -0.45,-1 -1,-1 z"
         inkscape:connector-curvature="0"
         style="fill:currentColor;stroke-width:1" />
      <path
         id="path3733"
         d="m 13.418182,8 h -1 c -1.336,0 -2.5910002,-0.52 -3.5360002,-1.464 -0.945,-0.944 -1.464,-2.2 -1.464,-3.536 V 2 c 0,-1.1 -0.9,-2 -2,-2 h -4 C 0.31818184,0 -0.58181814,0.9 -0.58181814,2 v 4 c 0,1.1 0.89999998,2 1.99999994,2 h 1 c 1.336,0 2.591,0.52 3.536,1.464 0.945,0.944 1.464,2.2 1.464,3.536 v 1 c 0,1.1 0.9,2 2,2 h 4.0000002 c 1.1,0 2,-0.9 2,-2 v -4 c 0,-1.1 -0.9,-2 -2,-2 z m 1,6 c 0,0.265 -0.105,0.515 -0.295,0.705 -0.19,0.19 -0.44,0.295 -0.705,0.295 H 9.4181818 c -0.265,0 -0.515,-0.105 -0.7049999,-0.295 C 8.5231818,14.515 8.4181818,14.265 8.4181818,14 v -1 c 0,-3.314 -2.686,-6 -6,-6 h -1 c -0.265,0 -0.51499996,-0.105 -0.70499996,-0.295 -0.19,-0.19 -0.295,-0.441 -0.295,-0.705 V 2 c 0,-0.265 0.105,-0.515 0.295,-0.705 C 0.90318184,1.105 1.1531818,1 1.4181818,1 h 4 c 0.265,0 0.515,0.105 0.705,0.295 0.19,0.19 0.295,0.44 0.295,0.705 v 1 c 0,3.314 2.686,6 6.0000002,6 h 1 c 0.265,0 0.515,0.105 0.705,0.2950001 0.19,0.1899999 0.295,0.4399999 0.295,0.7049999 z"
         inkscape:connector-curvature="0"
         style="fill:currentColor;stroke-width:1" />
    </g>
    <text
       xml:space="preserve"
       style="font-style:normal;font-weight:normal;font-size:11.29494381px;line-height:1.25;font-family:sans-serif;letter-spacing:0px;word-spacing:0px;fill:currentColor;fill-opacity:1;stroke:none;stroke-width:0.28237361"
       x="15.217337"
       y="324.18503"
       id="text3752"
       transform="scale(1.1230259,0.89045137)"><tspan
         sodipodi:role="line"
         id="tspan3750"
         x="15.217337"
         y="324.18503"
         style="font-style:normal;font-variant:normal;font-weight:bold;font-stretch:normal;font-family:'Lucida Sans';-inkscape-font-specification:'Lucida Sans Bold';stroke-width:0.28237361">COMMON</tspan></text>
    <text
       xml:space="preserve"
       style="font-style:normal;font-weight:normal;font-size:15.72517109px;line-height:1.25;font-family:sans-serif;letter-spacing:0px;word-spacing:0px;fill:currentColor;fill-opacity:1;stroke:none;stroke-width:0.39312923"
       x="13.591001"
       y="392.49088"
       id="text3756"
       transform="scale(1.3228225,0.75595933)"><tspan
         sodipodi:role="line"
         id="tspan3754"
         x="13.591001"
         y="392.49088"
         style="font-style:normal;font-variant:normal;font-weight:normal;font-stretch:normal;font-size:15.60636806px;line-height:0;font-family:Gabriola;-inkscape-font-specification:Gabriola;stroke-width:0.39312923">Evolution</tspan></text>
  </g>
</svg>
