<?xml version="1.0" encoding="UTF-8" standalone="no"?>
<!-- Generated by IcoMoon.io -->

<svg
   xmlns:dc="http://purl.org/dc/elements/1.1/"
   xmlns:cc="http://creativecommons.org/ns#"
   xmlns:rdf="http://www.w3.org/1999/02/22-rdf-syntax-ns#"
   xmlns:svg="http://www.w3.org/2000/svg"
   xmlns="http://www.w3.org/2000/svg"
   xmlns:sodipodi="http://sodipodi.sourceforge.net/DTD/sodipodi-0.dtd"
   xmlns:inkscape="http://www.inkscape.org/namespaces/inkscape"
   version="1.1"
   width="16"
   height="16"
   viewBox="0 0 16 16"
   id="svg38"
   sodipodi:docname="common-evolution-mark.svg"
   inkscape:version="0.92.2 (5c3e80d, 2017-08-06)">
  <metadata
     id="metadata44">
    <rdf:RDF>
      <cc:Work
         rdf:about="">
        <dc:format>image/svg+xml</dc:format>
        <dc:type
           rdf:resource="http://purl.org/dc/dcmitype/StillImage" />
        <dc:title></dc:title>
      </cc:Work>
    </rdf:RDF>
  </metadata>
  <defs
     id="defs42" />
  <sodipodi:namedview
     pagecolor="#ffffff"
     bordercolor="#666666"
     borderopacity="1"
     objecttolerance="10"
     gridtolerance="10"
     guidetolerance="10"
     inkscape:pageopacity="0"
     inkscape:pageshadow="2"
     inkscape:window-width="1215"
     inkscape:window-height="810"
     id="namedview40"
     showgrid="false"
     inkscape:zoom="20"
     inkscape:cx="-0.125"
     inkscape:cy="8"
     inkscape:window-x="403"
     inkscape:window-y="72"
     inkscape:window-maximized="0"
     inkscape:current-layer="svg38" />
  <path
     fill="#000000"
     d="M5 2h-2c-0.55 0-1 0.45-1 1v2c0 0.55 0.45 1 1 1h2c0.55 0 1-0.45 1-1v-2c0-0.55-0.45-1-1-1z"
     id="path28"
     style="fill:#f9a140;fill-opacity:1" />
  <path
     fill="#000000"
     d="M11 6h2c0.55 0 1-0.45 1-1v-2c0-0.55-0.45-1-1-1h-2c-0.55 0-1 0.45-1 1v2c0 0.55 0.45 1 1 1zM11 3h2v2h-2v-2z"
     id="path30"
     style="fill:#f57c00;fill-opacity:1" />
  <path
     fill="#000000"
     d="M5 10h-2c-0.55 0-1 0.45-1 1v2c0 0.55 0.45 1 1 1h2c0.55 0 1-0.45 1-1v-2c0-0.55-0.45-1-1-1zM5 13h-2v-2h2v2z"
     id="path32"
     style="fill:#f9a140;fill-opacity:1" />
  <path
     fill="#000000"
     d="M13 10h-2c-0.55 0-1 0.45-1 1v2c0 0.55 0.45 1 1 1h2c0.55 0 1-0.45 1-1v-2c0-0.55-0.45-1-1-1z"
     id="path34"
     style="fill:#f57c00;fill-opacity:1" />
  <path
     fill="#000000"
     d="M14 8h-1c-1.336 0-2.591-0.52-3.536-1.464s-1.464-2.2-1.464-3.536v-1c0-1.1-0.9-2-2-2h-4c-1.1 0-2 0.9-2 2v4c0 1.1 0.9 2 2 2h1c1.336 0 2.591 0.52 3.536 1.464s1.464 2.2 1.464 3.536v1c0 1.1 0.9 2 2 2h4c1.1 0 2-0.9 2-2v-4c0-1.1-0.9-2-2-2zM15 14c0 0.265-0.105 0.515-0.295 0.705s-0.44 0.295-0.705 0.295h-4c-0.265 0-0.515-0.105-0.705-0.295s-0.295-0.44-0.295-0.705v-1c0-3.314-2.686-6-6-6h-1c-0.265 0-0.515-0.105-0.705-0.295s-0.295-0.441-0.295-0.705v-4c0-0.265 0.105-0.515 0.295-0.705s0.44-0.295 0.705-0.295h4c0.265 0 0.515 0.105 0.705 0.295s0.295 0.44 0.295 0.705v1c0 3.314 2.686 6 6 6h1c0.265 0 0.515 0.105 0.705 0.295s0.295 0.44 0.295 0.705v4z"
     id="path36"
     style="fill:#fb8c00;fill-opacity:1" />
</svg>
